<svg width="200" height="200">
    <rect width="200" height="200" style="fill:white"/>
    <rect x="0" y="120" width="40" height="40" style="fill:yellow"/>
    <rect x="0" y="60" width="20" height="60" style="fill:blue"/>
    <rect x="19" y="60" width="21" height="20" style="fill:blue"/>
    <rect x="60" y="120" width="40" height="21" style="fill:lime"/>
    <rect x="80" y="100" width="40" height="21" style="fill:lime"/>
    <rect x="60" y="140" width="60" height="20" style="fill:orange"/>
    <rect x="100" y="120" width="20" height="21" style="fill:orange"/>
    <rect x="60" y="80" width="60" height="20" style="fill:purple"/>
    <rect x="80" y="60" width="20" height="21" style="fill:purple"/>
    <rect x="120" y="80" width="20" height="80" style="fill:cyan"/>
    <rect x="140" y="120" width="20" height="40" style="fill:blue"/>
    <rect x="159" y="140" width="41" height="20" style="fill:blue"/>
    <rect x="160" y="120" width="40" height="20" style="fill:red"/>
    <rect x="140" y="100" width="40" height="21" style="fill:red"/>
    <rect x="60" y="20" width="20" height="60" style="fill:orange"/>
    <rect x="40" y="20" width="21" height="20" style="fill:orange"/>
    <text x="65" y="190" fill="black" font-size="30">
        Tetris
    </text>
</svg>